<svg id="Layer_1" data-name="Layer 1" xmlns="http://www.w3.org/2000/svg" viewBox="0 0 123.99 70.97"><defs>

    <style>.cls-1{fill:#fff;}</style>

</defs><path class="cls-1" d="M2.93,70.59,9,57.49h4.16l6,13.1H15.3L14.22,67.9H7.91L6.69,70.59Zm5.91-4.94h4.34l-2.12-5.17Zm12.69,4.94V57.49h3.53V68.21H33.6v2.38Zm13.26,0,6.07-13.1H45l6.06,13.1H47.14L46.08,67.9H39.76l-1.21,2.69Zm5.89-4.94h4.37L42.9,60.48Zm12.71,4.94V57.49h8.68c2.18,0,5.37,1,5.37,3.69a3.27,3.27,0,0,1-2.61,3.19A2.56,2.56,0,0,1,67,67.26c0,.37,0,.78,0,1.15,0,.65,0,1.68.81,1.82v.36H63.79a6.84,6.84,0,0,1-.39-2.49c0-.33,0-.63,0-.77,0-1.71-1.47-1.82-2.66-1.82H56.85v5.08Zm3.46-7.28h4.51c1.68,0,2.53-.61,2.53-1.84,0-1.39-1.55-1.7-2.46-1.7H56.85Zm13.59,7.28V57.49h5.28l3.07,10.35h.07l3.08-10.35H87.1v13.1H83.76V59.69l-.06,0L80.51,70.59H77l-3.13-10.9,0,0V70.59Zm18.73,0,6.06-13.1h4.15l6.08,13.1h-3.91l-1.1-2.69h-6.3l-1.23,2.69Zm5.9-4.94h4.37l-2.13-5.17Zm11.85,1h3.46c0,1.67,2,2.09,3.38,2.09,2.49,0,3.78-.57,3.78-1.6a1.19,1.19,0,0,0-.65-1.09,13.13,13.13,0,0,0-2.48-.63c-.47,0-1.42-.27-1.64-.27a10.1,10.1,0,0,1-4.19-1.25,3,3,0,0,1-1.38-2.69c0-3.23,4-4,6.46-4,2.69,0,6.63.84,6.81,4.21H117c-.15-1.32-1.42-2-3.58-2-1.87,0-3,.59-3,1.51,0,3.17,10.52.49,10.52,5.72a3.31,3.31,0,0,1-1.25,2.7A9.4,9.4,0,0,1,114.41,71c-4.85,0-7.39-1.49-7.49-4.35"/><polygon class="cls-1" points="73.27 37.4 49.96 37.4 52.44 41.31 75.8 41.31 75.8 36.43 73.27 31.82 73.27 37.4"/><polygon class="cls-1" points="32.2 30.4 25.41 41.33 17.35 41.33 15.51 37.39 23.34 37.39 30.01 26.87 32.2 30.4"/><polygon class="cls-1" points="30.15 14.9 24.18 5.01 29.33 7.06 32.2 12.03 30.15 14.9"/><path class="cls-1" d="M4.33,33.69C-1.68,11.94,14,3.75,24.76,3.82l70.2,0c12,.54,16.06,5,18.54,7.87C108.42,3.59,103.17,0,94.52,0H24.76C3.43-.71-6.23,19.44,4.33,33.69"/><path class="cls-1" d="M77.23,20.7a3.15,3.15,0,0,1,1.85-.84,5.66,5.66,0,0,1-2.86-2Z"/><path class="cls-1" d="M83.42,17.37c.28-3.68,3.85-4.76,7.84-2.67.3-8.43-15.29-5.12-7.84,2.67"/><path class="cls-1" d="M96.62,9.11c4.83,3.93,4,9.29.81,13.45a8.68,8.68,0,0,0-3.71-3.12c4-2,5.18-5.67,2.9-10.33"/><path class="cls-1" d="M82.16,31.64c-8.83-7.32,8.91-13.73,10.33-3.3-2.73-2.35-10.55-1.82-10.33,3.3"/><path class="cls-1" d="M74.32,32.28c5.13,18.7,34.61,8,24.38-7,2.45,15.46-19.4,15.81-24.38,7"/><path class="cls-1" d="M0,38c6.46,7.9,14.69,10.4,23.12,10.4H95.07c15.26,0,31.82-14.53,24.7-38.48,12.83,25.67-6.19,42.95-22.31,42.95H25.2C16.92,53.15,6.39,50,0,38"/><path class="cls-1" d="M36.34,37.4l2.07,3.9H49.56l-7.42-13H52.86l4-5.6-1.24-2.07h3.91c.16-5.95,4.31-7.16,7.23-4.92.78-6.73-9.32-7.9-9.7.8H50.39l1.66,2.71h2.21l-3.47,5.34H39.13l.46-1-1.38-2.28,8-12.63L43.79,5,33.87,20.87l9.49,16.5Z"/><path class="cls-1" d="M59.06,31.62h6.6c5.49-4.09,11.51-6.57,10.44-15-.28-2.31-1.59-4.76-4.25-7.32,6.6,12.49-9.42,18.12-12.79,22.31"/></svg>